<svg width="59" height="60" viewBox="0 0 59 60" fill="none" xmlns="http://www.w3.org/2000/svg">
<path d="M27.3333 42.5H32.6667M39.3333 42.5V21.1667C39.3333 20.4594 39.0524 19.7811 38.5523 19.281C38.0522 18.781 37.3739 18.5 36.6667 18.5H23.3333C22.6261 18.5 21.9478 18.781 21.4477 19.281C20.9476 19.7811 20.6667 20.4594 20.6667 21.1667V42.5H39.3333ZM39.3333 42.5H42H39.3333ZM39.3333 42.5H32.6667H39.3333ZM20.6667 42.5H18H20.6667ZM20.6667 42.5H27.3333H20.6667ZM26 23.8333H27.3333H26ZM26 29.1667H27.3333H26ZM32.6667 23.8333H34H32.6667ZM32.6667 29.1667H34H32.6667ZM27.3333 42.5V35.8333C27.3333 35.4797 27.4738 35.1406 27.7239 34.8905C27.9739 34.6405 28.313 34.5 28.6667 34.5H31.3333C31.687 34.5 32.0261 34.6405 32.2761 34.8905C32.5262 35.1406 32.6667 35.4797 32.6667 35.8333V42.5H27.3333Z" stroke="#552AC1" stroke-width="2" stroke-linecap="round" stroke-linejoin="round"/>
<rect x="0.5" y="1" width="58" height="58" rx="9.5" stroke="#552AC1"/>
</svg>
