<svg width="145" height="145" viewBox="0 0 145 145" fill="none" xmlns="http://www.w3.org/2000/svg">
<g clip-path="url(#clip0_2664_20074)">
<rect width="145" height="145" rx="72.5" fill="#FFFDC0"/>
<path d="M81.1522 94.2706C75.2196 94.2706 69.3451 93.1066 63.8641 90.8451C58.3831 88.5835 53.4029 85.2688 49.208 81.09C45.013 76.9112 41.6853 71.9503 39.415 66.4904C37.1447 61.0306 35.9762 55.1788 35.9762 49.2691C35.9762 43.3594 37.1447 37.5076 39.415 32.0478C41.6854 26.5879 45.013 21.627 49.208 17.4482C53.4029 13.2694 58.3831 9.95465 63.8641 7.69311C69.3451 5.43157 75.2196 4.26758 81.1522 4.26758L81.1522 49.2691L81.1522 94.2706Z" fill="#EFB68E"/>
<path d="M-9.19953 4.26845C-3.26694 4.26845 2.60756 5.43245 8.08855 7.69399C13.5696 9.95552 18.5497 13.2703 22.7447 17.4491C26.9397 21.6279 30.2673 26.5888 32.5376 32.0486C34.8079 37.5085 35.9764 43.3603 35.9764 49.27C35.9764 55.1797 34.8079 61.0315 32.5376 66.4913C30.2673 71.9511 26.9396 76.9121 22.7447 81.0909C18.5497 85.2696 13.5695 88.5844 8.08854 90.846C2.60754 93.1075 -3.26696 94.2715 -9.19955 94.2715L-9.19954 49.27L-9.19953 4.26845Z" fill="#EFB68E"/>
<path d="M-5.458 189.007C-5.64219 183.078 -4.66115 177.17 -2.57088 171.621C-0.480611 166.073 2.67795 160.992 6.72447 156.669C10.771 152.347 15.6262 148.867 21.0129 146.428C26.3996 143.989 32.2124 142.64 38.1192 142.456C44.026 142.273 49.9113 143.259 55.439 145.359C60.9667 147.458 66.0285 150.63 70.3356 154.693C74.6426 158.757 78.1104 163.631 80.541 169.04C82.9716 174.448 84.3175 180.283 84.5017 186.213L39.5218 187.61L-5.458 189.007Z" fill="#EFB68E"/>
<path d="M81.6963 95.9046C81.8805 101.834 80.8994 107.742 78.8092 113.291C76.7189 118.839 73.5603 123.92 69.5138 128.243C65.4673 132.565 60.6121 136.045 55.2254 138.484C49.8386 140.923 44.0259 142.273 38.1191 142.456C32.2123 142.64 26.327 141.653 20.7993 139.554C15.2716 137.454 10.2097 134.282 5.90272 130.219C1.59571 126.155 -1.8721 121.281 -4.30273 115.872C-6.73335 110.464 -8.07918 104.629 -8.26338 98.6991L36.7164 97.3019L81.6963 95.9046Z" fill="#EFB68E"/>
<path d="M85.0505 97.6005C90.9831 97.6005 96.8576 98.7645 102.339 101.026C107.82 103.288 112.8 106.602 116.995 110.781C121.19 114.96 124.517 119.921 126.788 125.381C129.058 130.841 130.226 136.692 130.226 142.602C130.226 148.512 129.058 154.364 126.788 159.823C124.517 165.283 121.19 170.244 116.995 174.423C112.8 178.602 107.82 181.916 102.339 184.178C96.8575 186.44 90.983 187.604 85.0505 187.604L85.0505 142.602L85.0505 97.6005Z" fill="#EFB68E"/>
<path d="M175.402 187.603C169.47 187.603 163.595 186.439 158.114 184.177C152.633 181.916 147.653 178.601 143.458 174.422C139.263 170.243 135.935 165.282 133.665 159.822C131.395 154.363 130.226 148.511 130.226 142.601C130.226 136.691 131.395 130.84 133.665 125.38C135.935 119.92 139.263 114.959 143.458 110.78C147.653 106.601 152.633 103.287 158.114 101.025C163.595 98.7636 169.47 97.5996 175.402 97.5996L175.402 142.601L175.402 187.603Z" fill="#EFB68E"/>
<path d="M171.662 2.86362C171.846 8.79335 170.865 14.7012 168.774 20.2497C166.684 25.7983 163.526 30.879 159.479 35.2017C155.433 39.5244 150.577 43.0044 145.191 45.4432C139.804 47.8819 133.991 49.2315 128.084 49.415C122.178 49.5985 116.292 48.6122 110.765 46.5126C105.237 44.4129 100.175 41.2409 95.8681 37.1776C91.561 33.1144 88.0932 28.2396 85.6626 22.8315C83.232 17.4233 81.8862 11.5878 81.702 5.65807L126.682 4.26085L171.662 2.86362Z" fill="#EFB68E"/>
<path d="M84.5073 95.9664C84.3231 90.0367 85.3042 84.1289 87.3945 78.5803C89.4847 73.0318 92.6433 67.9511 96.6898 63.6284C100.736 59.3057 105.592 55.8256 110.978 53.3869C116.365 50.9482 122.178 49.5985 128.085 49.4151C133.991 49.2316 139.877 50.2178 145.404 52.3175C150.932 54.4172 155.994 57.5892 160.301 61.6524C164.608 65.7156 168.076 70.5905 170.506 75.9986C172.937 81.4068 174.283 87.2423 174.467 93.172L129.487 94.5692L84.5073 95.9664Z" fill="#EFB68E"/>
</g>
<defs>
<clipPath id="clip0_2664_20074">
<rect width="145" height="145" rx="72.5" fill="white"/>
</clipPath>
</defs>
</svg>
