<svg width="20" height="20" viewBox="0 0 20 20" fill="none" xmlns="http://www.w3.org/2000/svg">
<path d="M10 20C12.6521 20 15.1959 18.9464 17.0711 17.0711C18.9464 15.1956 20 12.6521 20 10C20 7.34792 18.9464 4.80414 17.0711 2.92894C15.1956 1.05363 12.6521 0 10 0C7.34792 0 4.80414 1.05363 2.92894 2.92894C1.05363 4.80442 0 7.34792 0 10C0 12.6521 1.05363 15.1959 2.92894 17.0711C4.80442 18.9464 7.34792 20 10 20ZM4.80921 10.2636C4.97951 10.0944 5.20992 9.99925 5.45008 9.99925C5.69039 9.99925 5.92065 10.0944 6.09111 10.2636L8.18192 12.3546L13.4456 7.09093C13.6796 6.89049 13.9992 6.82231 14.2947 6.90967C14.5902 6.99703 14.8212 7.22821 14.9086 7.52362C14.9961 7.81917 14.9278 8.13878 14.7273 8.37286L8.8181 14.2821L8.81826 14.2819C8.6478 14.4513 8.41754 14.5463 8.17723 14.5463C7.93707 14.5463 7.70666 14.4513 7.53636 14.2819L4.80908 11.5547C4.63695 11.3841 4.54015 11.1516 4.54015 10.9092C4.54015 10.6669 4.63695 10.4345 4.80908 10.2638L4.80921 10.2636Z" fill="#32D583"/>
</svg>
