<svg width="120" height="120" viewBox="0 0 120 120" fill="none" xmlns="http://www.w3.org/2000/svg">
<path opacity="0.5" d="M82.5 60C82.5 72.4264 72.4264 82.5 60 82.5C47.5736 82.5 37.5 72.4264 37.5 60C37.5 47.5736 47.5736 37.5 60 37.5C72.4264 37.5 82.5 47.5736 82.5 60ZM39.75 60C39.75 71.1838 48.8162 80.25 60 80.25C71.1838 80.25 80.25 71.1838 80.25 60C80.25 48.8162 71.1838 39.75 60 39.75C48.8162 39.75 39.75 48.8162 39.75 60Z" fill="#CB6090"/>
<path d="M82.5 60C82.5 63.5507 81.6596 67.0511 80.0476 70.2148C78.4356 73.3785 76.0978 76.1158 73.2252 78.2029C70.3526 80.29 67.0268 81.6675 63.5198 82.223C60.0128 82.7784 56.4241 82.496 53.0471 81.3988L53.7424 79.2589C56.7817 80.2464 60.0115 80.5006 63.1678 80.0007C66.3241 79.5008 69.3173 78.261 71.9027 76.3826C74.488 74.5042 76.5921 72.0407 78.0429 69.1933C79.4937 66.346 80.25 63.1957 80.25 60H82.5Z" fill="#CB6090"/>
<path opacity="0.5" d="M95 60C95 79.33 79.33 95 60 95C40.67 95 25 79.33 25 60C25 40.67 40.67 25 60 25C79.33 25 95 40.67 95 60ZM32 60C32 75.464 44.536 88 60 88C75.464 88 88 75.464 88 60C88 44.536 75.464 32 60 32C44.536 32 32 44.536 32 60Z" fill="#252561"/>
<path d="M95 60C95 65.5234 93.6928 70.9683 91.1852 75.8897C88.6777 80.811 85.041 85.069 80.5725 88.3156C76.104 91.5621 70.9306 93.705 65.4752 94.5691C60.0198 95.4331 54.4374 94.9938 49.1844 93.287C43.9314 91.5802 39.1569 88.6543 35.2513 84.7487C31.3457 80.8431 28.4198 76.0686 26.713 70.8156C25.0062 65.5626 24.5669 59.9802 25.4309 54.5248C26.295 49.0694 28.4379 43.896 31.6844 39.4275L37.3475 43.542C34.7503 47.1168 33.036 51.2555 32.3447 55.6198C31.6535 59.9841 32.005 64.4501 33.3704 68.6525C34.7359 72.8549 37.0765 76.6745 40.201 79.799C43.3255 82.9235 47.1451 85.2641 51.3475 86.6296C55.5499 87.995 60.0159 88.3465 64.3802 87.6553C68.7445 86.964 72.8832 85.2497 76.458 82.6525C80.0328 80.0552 82.9421 76.6488 84.9482 72.7117C86.9542 68.7747 88 64.4187 88 60H95Z" fill="#252561"/>
<path opacity="0.5" d="M105 60C105 84.8528 84.8528 105 60 105C35.1472 105 15 84.8528 15 60C15 35.1472 35.1472 15 60 15C84.8528 15 105 35.1472 105 60ZM17.25 60C17.25 83.6102 36.3898 102.75 60 102.75C83.6102 102.75 102.75 83.6102 102.75 60C102.75 36.3898 83.6102 17.25 60 17.25C36.3898 17.25 17.25 36.3898 17.25 60Z" fill="#ECDDED"/>
<path d="M105 60C105 65.9095 103.836 71.7611 101.575 77.2208C99.3131 82.6804 95.9984 87.6412 91.8198 91.8198C87.6412 95.9984 82.6804 99.3131 77.2208 101.575C71.7611 103.836 65.9095 105 60 105L60 102.75C65.614 102.75 71.173 101.644 76.3597 99.4958C81.5464 97.3475 86.2591 94.1985 90.2288 90.2288C94.1985 86.2591 97.3475 81.5464 99.4958 76.3597C101.644 71.173 102.75 65.614 102.75 60H105Z" fill="#ECDDED"/>
<path opacity="0.5" d="M115 60C115 90.3757 90.3757 115 60 115C29.6243 115 5 90.3757 5 60C5 29.6243 29.6243 5 60 5C90.3757 5 115 29.6243 115 60ZM7.75 60C7.75 88.8569 31.1431 112.25 60 112.25C88.8569 112.25 112.25 88.8569 112.25 60C112.25 31.1431 88.8569 7.75 60 7.75C31.1431 7.75 7.75 31.1431 7.75 60Z" fill="#4B4893"/>
<path d="M115 60C115 71.6149 111.323 82.9316 104.496 92.3282C97.6689 101.725 88.0423 108.719 76.9959 112.308C65.9495 115.897 54.0504 115.897 43.0041 112.308C31.9577 108.719 22.3311 101.725 15.5041 92.3282L17.7289 90.7118C24.2146 99.6386 33.3598 106.283 43.8539 109.693C54.3479 113.102 65.6521 113.102 76.1461 109.693C86.6402 106.283 95.7854 99.6386 102.271 90.7118C108.757 81.785 112.25 71.0341 112.25 60H115Z" fill="#4B4893"/>
</svg>
