<svg width="59" height="60" viewBox="0 0 59 60" fill="none" xmlns="http://www.w3.org/2000/svg">
<path d="M34.5811 39.5024L33.8593 33.3536C33.757 32.4826 33.3591 31.6814 32.7406 31.1007C32.122 30.5199 31.3254 30.1996 30.5004 30.2H28.0145C27.1899 30.2002 26.3938 30.5208 25.7757 31.1015C25.1576 31.6822 24.7601 32.483 24.6579 33.3536L23.9349 39.5024C23.8952 39.8402 23.9235 40.1831 24.018 40.5084C24.1124 40.8336 24.2709 41.1338 24.4827 41.389C24.6946 41.6441 24.955 41.8484 25.2468 41.9882C25.5385 42.128 25.8549 42.2002 26.1749 42.2H32.3423C32.6621 42.2 32.9784 42.1277 33.27 41.9878C33.5616 41.8479 33.8219 41.6436 34.0337 41.3885C34.2454 41.1334 34.4037 40.8333 34.4981 40.5081C34.5925 40.1829 34.6208 39.8401 34.5811 39.5024V39.5024Z" stroke="#552AC1" stroke-width="2" stroke-linecap="round" stroke-linejoin="round"/>
<path d="M29.2587 25.4C31.1275 25.4 32.6424 23.7882 32.6424 21.8C32.6424 19.8117 31.1275 18.2 29.2587 18.2C27.3899 18.2 25.875 19.8117 25.875 21.8C25.875 23.7882 27.3899 25.4 29.2587 25.4Z" stroke="#552AC1" stroke-width="2"/>
<path d="M20.2355 29C21.4814 29 22.4913 27.9254 22.4913 26.6C22.4913 25.2745 21.4814 24.2 20.2355 24.2C18.9897 24.2 17.9797 25.2745 17.9797 26.6C17.9797 27.9254 18.9897 29 20.2355 29Z" stroke="#552AC1" stroke-width="2"/>
<path d="M38.2818 29C39.5276 29 40.5376 27.9254 40.5376 26.6C40.5376 25.2745 39.5276 24.2 38.2818 24.2C37.036 24.2 36.026 25.2745 36.026 26.6C36.026 27.9254 37.036 29 38.2818 29Z" stroke="#552AC1" stroke-width="2"/>
<path d="M20.2355 32.5999H19.8903C19.3563 32.5998 18.8396 32.8013 18.4322 33.1684C18.0247 33.5356 17.7528 34.0447 17.665 34.6051L17.2894 37.0051C17.2355 37.3489 17.2527 37.7011 17.3397 38.0372C17.4267 38.3733 17.5815 38.6852 17.7933 38.9512C18.0051 39.2172 18.2688 39.4309 18.5661 39.5774C18.8634 39.724 19.1871 39.7999 19.5147 39.7999H23.6192" stroke="#552AC1" stroke-width="2" stroke-linecap="round" stroke-linejoin="round"/>
<path d="M38.2818 32.5999H38.6269C39.1609 32.5998 39.6776 32.8013 40.0851 33.1684C40.4926 33.5356 40.7644 34.0447 40.8523 34.6051L41.2278 37.0051C41.2817 37.3489 41.2646 37.7011 41.1776 38.0372C41.0906 38.3733 40.9358 38.6852 40.724 38.9512C40.5122 39.2172 40.2485 39.4309 39.9512 39.5774C39.6539 39.724 39.3302 39.7999 39.0025 39.7999H34.8981" stroke="#552AC1" stroke-width="2" stroke-linecap="round" stroke-linejoin="round"/>
<rect x="0.5" y="1" width="58" height="58" rx="9.5" stroke="#552AC1"/>
</svg>
