<svg width="216" height="132" viewBox="0 0 216 132" fill="none" xmlns="http://www.w3.org/2000/svg">
<g opacity="0.4">
<path d="M59.497 109.939C57.0958 109.939 54.7929 108.985 53.0949 107.287C51.397 105.59 50.4431 103.287 50.4431 100.885C50.4431 98.4842 51.397 96.1813 53.0949 94.4833C54.7929 92.7854 57.0958 91.8315 59.497 91.8315H9.05389C6.65265 91.8315 4.34976 90.8776 2.65182 89.1797C0.953889 87.4818 0 85.1789 0 82.7776C0 80.3764 0.953889 78.0735 2.65182 76.3756C4.34976 74.6776 6.65265 73.7237 9.05389 73.7237H60.7904C63.1917 73.7237 65.4946 72.7699 67.1925 71.0719C68.8904 69.374 69.8443 67.0711 69.8443 64.6699C69.8443 62.2686 68.8904 59.9657 67.1925 58.2678C65.4946 56.5698 63.1917 55.616 60.7904 55.616H28.4551C26.0538 55.616 23.751 54.6621 22.053 52.9641C20.3551 51.2662 19.4012 48.9633 19.4012 46.5621C19.4012 44.1608 20.3551 41.8579 22.053 40.16C23.751 38.4621 26.0538 37.5082 28.4551 37.5082H80.1916C77.7904 37.5082 75.4875 36.5543 73.7895 34.8564C72.0916 33.1584 71.1377 30.8555 71.1377 28.4543C71.1377 26.053 72.0916 23.7501 73.7895 22.0522C75.4875 20.3543 77.7904 19.4004 80.1916 19.4004H206.946C209.347 19.4004 211.65 20.3543 213.348 22.0522C215.046 23.7501 216 26.053 216 28.4543C216 30.8555 215.046 33.1584 213.348 34.8564C211.65 36.5543 209.347 37.5082 206.946 37.5082H155.21C157.611 37.5082 159.914 38.4621 161.612 40.16C163.31 41.8579 164.263 44.1608 164.263 46.5621C164.263 48.9633 163.31 51.2662 161.612 52.9641C159.914 54.6621 157.611 55.616 155.21 55.616H183.665C186.066 55.616 188.369 56.5698 190.067 58.2678C191.765 59.9657 192.719 62.2686 192.719 64.6699C192.719 67.0711 191.765 69.374 190.067 71.0719C188.369 72.7699 186.066 73.7237 183.665 73.7237H170.505C164.2 73.7237 159.09 77.7773 159.09 82.7776C159.09 87.778 166.85 91.8315 166.85 91.8315C169.252 91.8315 171.554 92.7854 173.252 94.4833C174.95 96.1813 175.904 98.4842 175.904 100.885C175.904 103.287 174.95 105.59 173.252 107.287C171.554 108.985 169.252 109.939 166.85 109.939H59.497ZM197.892 64.6699C197.892 62.8792 198.423 61.1287 199.418 59.6398C200.413 58.1509 201.827 56.9904 203.481 56.3051C205.136 55.6199 206.956 55.4406 208.712 55.7899C210.469 56.1393 212.082 57.0016 213.348 58.2678C214.614 59.534 215.477 61.1472 215.826 62.9035C216.175 64.6598 215.996 66.4802 215.311 68.1346C214.626 69.789 213.465 71.203 211.976 72.1979C210.487 73.1927 208.737 73.7237 206.946 73.7237C204.545 73.7237 202.242 72.7699 200.544 71.0719C198.846 69.374 197.892 67.0711 197.892 64.6699V64.6699Z" fill="#D0E1FB"/>
<path d="M146.578 120.426L70.8351 129.726C69.4732 129.893 68.1006 129.513 67.0193 128.668C65.9381 127.823 65.2367 126.583 65.0695 125.221L53.4083 30.2492C53.3247 29.5682 53.5151 28.882 53.9374 28.3413C54.3598 27.8007 54.9797 27.45 55.6606 27.3664L55.6876 27.3631L61.9707 26.6581L67.0518 26.0863L70.7 25.6788L137.971 18.1083L150.001 105.858L151.082 114.66C151.249 116.022 150.869 117.395 150.024 118.476C149.179 119.557 147.94 120.259 146.578 120.426Z" fill="white" stroke="#C6C7F8" stroke-width="2.5" stroke-miterlimit="10" stroke-linecap="round"/>
<path d="M134.694 23.6303L145.584 103.153L146.564 111.132C146.643 111.739 146.601 112.356 146.441 112.947C146.282 113.538 146.007 114.092 145.633 114.576C145.259 115.061 144.793 115.467 144.262 115.772C143.73 116.076 143.144 116.273 142.537 116.35L74.7076 124.679C74.0996 124.75 73.4834 124.701 72.8943 124.534C72.3052 124.368 71.7548 124.086 71.2746 123.706C70.7944 123.327 70.3938 122.856 70.0958 122.321C69.7978 121.786 69.6081 121.198 69.5377 120.59L58.9964 34.7375C58.9128 34.0565 59.1031 33.3702 59.5255 32.8296C59.9479 32.289 60.5677 31.9383 61.2487 31.8547L69.6394 30.8244" fill="#DFF2F5"/>
<path d="M158.666 107.03H82.3547C80.3935 107.03 78.7979 105.435 78.7979 103.473V5.17407C78.7979 3.2128 80.3935 1.61719 82.3547 1.61719H141.278C142.228 1.61719 143.121 1.98689 143.793 2.6582L161.18 20.0351C161.853 20.707 162.223 21.6005 162.223 22.551V103.473C162.223 105.435 160.627 107.03 158.666 107.03Z" fill="white"/>
<path d="M82.354 3.23353C81.2843 3.23353 80.4139 4.10387 80.4139 5.17365V103.473C80.4139 104.543 81.2843 105.413 82.354 105.413H158.665C159.735 105.413 160.606 104.543 160.606 103.473V22.5505C160.606 22.0321 160.404 21.5447 160.037 21.1783L142.649 3.80136C142.283 3.43519 141.796 3.23353 141.278 3.23353H82.354ZM82.354 0H141.278C142.649 0 143.965 0.544632 144.935 1.5142L162.323 18.8911C163.294 19.8614 163.839 21.1779 163.839 22.5505V103.473C163.839 106.33 161.523 108.647 158.665 108.647H82.354C79.4967 108.647 77.1804 106.33 77.1804 103.473V5.17365C77.1804 2.31633 79.4967 0 82.354 0Z" fill="#C6C7F8"/>
<g opacity="0.5">
<rect x="90.3531" y="34.291" width="34.3862" height="2.83019" transform="rotate(1.31758 90.3531 34.291)" fill="#C6C7F8"/>
<rect x="90.1449" y="43.3457" width="29.1762" height="2.83019" transform="rotate(1.31758 90.1449 43.3457)" fill="#C6C7F8"/>
<rect x="122.959" y="44.0996" width="29.1762" height="2.83019" transform="rotate(1.31758 122.959 44.0996)" fill="#C6C7F8"/>
<rect x="89.9366" y="52.3984" width="29.1762" height="2.83019" transform="rotate(1.31758 89.9366 52.3984)" fill="#C6C7F8"/>
<rect x="89.7284" y="61.4531" width="29.1762" height="2.83019" transform="rotate(1.31758 89.7284 61.4531)" fill="#C6C7F8"/>
<rect x="122.543" y="62.209" width="29.1762" height="2.83019" transform="rotate(1.31758 122.543 62.209)" fill="#C6C7F8"/>
<rect x="122.751" y="53.1543" width="29.1762" height="2.83019" transform="rotate(1.31758 122.751 53.1543)" fill="#C6C7F8"/>
</g>
<path d="M141.851 3.10742V18.111C141.851 19.1401 142.26 20.1271 142.988 20.8548C143.715 21.5824 144.702 21.9913 145.731 21.9913H155.993" stroke="#C6C7F8" stroke-width="2.5" stroke-miterlimit="10" stroke-linecap="round" stroke-linejoin="round"/>
</g>
</svg>
